<?xml version="1.0" encoding="utf-8"?>
<!-- Generator: Adobe Illustrator 19.1.1, SVG Export Plug-In . SVG Version: 6.00 Build 0)  -->
<svg version="1.1" xmlns="http://www.w3.org/2000/svg" xmlns:xlink="http://www.w3.org/1999/xlink" x="0px" y="0px"
	 viewBox="0 0 275.2 47.6" style="enable-background:new 0 0 275.2 47.6;" xml:space="preserve">
<style type="text/css">
	.st0{display:none;}
	.st1{fill:#006837;stroke:#FCFCFC;stroke-miterlimit:10;}
	.st2{fill:#8CC63F;stroke:#FCFCFC;stroke-miterlimit:10;}
	.st3{fill:#8CC63F;stroke:#FFFFFF;stroke-miterlimit:10;}
	.st4{fill:#8CC63F;}
</style>
<g id="Layer_1" class="st0">
</g>
<g id="MaybeSquare">
</g>
<g id="MaybeText">
</g>
<g id="CONSULTINGText">
	<rect x="0.5" y="0.5" class="st1" width="11.7" height="11.4"/>
	<rect x="12.6" y="0.5" class="st2" width="11.7" height="11.4"/>
	<rect x="24.5" y="0.5" class="st2" width="11.7" height="11.4"/>
	<rect x="0.5" y="12.2" class="st1" width="11.7" height="11.4"/>
	<rect x="12.6" y="12.2" class="st1" width="11.7" height="11.4"/>
	<rect x="24.5" y="12.2" class="st2" width="11.7" height="11.4"/>
	<rect x="36.4" y="0.5" class="st2" width="11.7" height="11.4"/>
	<rect x="36.4" y="12.2" class="st1" width="11.7" height="11.4"/>
	<rect x="48.5" y="0.5" class="st1" width="11.7" height="11.4"/>
	<rect x="48.5" y="12.2" class="st1" width="11.7" height="11.4"/>
	<rect x="0.5" y="23.9" class="st1" width="11.7" height="11.4"/>
	<rect x="12.6" y="23.9" class="st2" width="11.7" height="11.4"/>
	<rect x="24.5" y="23.9" class="st1" width="11.7" height="11.4"/>
	<rect x="0.5" y="35.7" class="st1" width="11.7" height="11.4"/>
	<rect x="12.6" y="35.7" class="st3" width="11.7" height="11.4"/>
	<rect x="24.5" y="35.7" class="st2" width="11.7" height="11.4"/>
	<rect x="36.4" y="23.9" class="st2" width="11.7" height="11.4"/>
	<rect x="36.4" y="35.7" class="st2" width="11.7" height="11.4"/>
	<rect x="48.5" y="23.9" class="st1" width="11.7" height="11.4"/>
	<rect x="48.5" y="35.7" class="st1" width="11.7" height="11.4"/>
	<g>
		<path d="M83.5,25.7h-3.3V8l-3.9,17.7h-1.9L70.6,8v17.7h-3.3V1.6h5l3.1,15.1l3.1-15.1h5V25.7z"/>
		<path d="M90.5,20.5l-0.9,5.2h-3.4l4.3-24.1h4.7l4.5,24.1h-3.5l-0.9-5.2H90.5z M92.8,6.2L91,17h3.6L92.8,6.2z"/>
		<path d="M108,25.7h-3.4v-9.4l-5-14.7h3.8l3,10.2l3.1-10.2h3.7L108,16.3V25.7z"/>
		<path d="M115.3,1.6h5.1c4.2,0,6.5,2.2,6.5,6.1c0,2.9-1.2,4.6-3.7,5.4c3,0.9,4.2,2.6,4.2,5.8c0,4.3-2.5,6.8-6.6,6.8h-5.6V1.6z
			 M120,11.4c2.1,0,3.5-1.3,3.5-3.4c0-0.9-0.3-1.7-0.8-2.2c-0.6-0.5-1.3-0.8-2.6-0.8h-1.3v6.4H120z M120.5,22.3
			c2.2,0,3.4-1.2,3.4-3.4c0-2.4-1.5-4-3.9-4h-1.2v7.4H120.5z"/>
		<path d="M140.6,5H134v6.4h4.9v3.4H134v7.4h6.6v3.4h-10.1V1.6h10.1V5z"/>
	</g>
	<g>
		<path class="st4" d="M154,9.3V8.8c0-2.7-0.9-4.1-2.5-4.1c-0.9,0-1.6,0.4-2,1.2c-0.4,0.8-0.5,1.5-0.5,3.4v7.9
			c0,1.8,0.1,2.7,0.4,3.5c0.3,0.9,1.2,1.5,2.1,1.5c1.2,0,2-0.8,2.4-2.3c0.1-0.6,0.2-1.1,0.2-2.9h3.3v0.8c0,5.1-2,7.8-5.9,7.8
			c-2.2,0-3.9-0.9-4.8-2.6c-0.8-1.5-1-2.8-1-6.3V10c0-3.8,0.3-5.1,1.3-6.6c0.9-1.4,2.5-2.2,4.5-2.2c3.7,0,5.8,2.7,5.8,7.3v0.7H154z"
			/>
		<path class="st4" d="M171.8,17.7c0,2.7-0.4,4.3-1.2,5.6c-1,1.5-2.6,2.3-4.6,2.3c-2.1,0-3.7-0.8-4.6-2.3c-0.9-1.3-1.2-2.9-1.2-5.6
			V9.1c0-2.7,0.4-4.3,1.2-5.6c1-1.5,2.6-2.3,4.6-2.3c2.1,0,3.7,0.8,4.6,2.3c0.9,1.3,1.2,2.9,1.2,5.6V17.7z M163.4,17.7
			c0,1.9,0.1,2.5,0.4,3.2c0.4,0.8,1.2,1.3,2.1,1.3s1.7-0.5,2.1-1.3c0.4-0.7,0.4-1.3,0.4-3.2V9.2c0-1.9-0.1-2.5-0.4-3.2
			c-0.4-0.8-1.2-1.3-2.1-1.3s-1.7,0.5-2.1,1.3c-0.3,0.7-0.4,1.3-0.4,3.2V17.7z"/>
		<path class="st4" d="M186.7,25.2h-3L178,9.5v15.7h-3.1V1.6h3.3l5.4,14.7V1.6h3.1V25.2z"/>
		<path class="st4" d="M198,8.2c-0.5-2.3-1.5-3.5-2.8-3.5c-1.2,0-2.2,1-2.2,2.4c0,0.8,0.3,1.7,0.9,2.4c0.5,0.7,0.5,0.7,2.8,2.6
			c1.8,1.6,2.5,2.2,3.2,3.2c0.9,1.2,1.4,2.7,1.4,4.3c0,3.6-2.4,6-5.9,6c-3.7,0-5.8-2.2-6.5-6.7l3.2-1c0.4,2.8,1.5,4.3,3.3,4.3
			c1.4,0,2.4-1.1,2.4-2.7c0-1.5-0.7-2.4-3.2-4.6c-3-2.6-3.1-2.7-3.9-3.9c-0.8-1.1-1.2-2.5-1.2-3.9c0-3.4,2.3-5.8,5.6-5.8
			c3.1,0,5.1,2,6,5.9L198,8.2z"/>
		<path class="st4" d="M215,1.6v16c0,3-0.3,4.5-1.2,5.8c-0.9,1.4-2.5,2.1-4.4,2.1c-2,0-3.5-0.7-4.5-2.1c-0.9-1.3-1.2-2.9-1.2-5.8
			v-16h3.3v16.6c0,2.8,0.7,3.9,2.4,3.9c1.7,0,2.3-1.1,2.3-3.9V1.6H215z"/>
		<path class="st4" d="M221.5,21.9h6.6v3.4h-9.9V1.6h3.3V21.9z"/>
		<path class="st4" d="M235.2,25.2h-3.3V5h-4.1V1.6h11.6V5h-4.2V25.2z"/>
		<path class="st4" d="M245,25.2h-3.3V1.6h3.3V25.2z"/>
		<path class="st4" d="M260.2,25.2h-3l-5.8-15.7v15.7h-3.1V1.6h3.3l5.4,14.7V1.6h3.1V25.2z"/>
		<path class="st4" d="M274.9,13.5v11.7h-1.7l-0.6-2c-1.1,1.7-2.3,2.4-4,2.4c-2,0-3.6-1-4.4-2.8c-0.7-1.5-0.9-3-0.9-6.3V10
			c0-3.8,0.3-5.1,1.3-6.6c0.9-1.4,2.6-2.2,4.5-2.2c2.3,0,4.1,1.1,5,3.2c0.5,1.2,0.8,2.6,0.8,4.9h-3.3c0-3.3-0.7-4.6-2.5-4.6
			c-0.9,0-1.6,0.4-2,1.2c-0.4,0.8-0.5,1.5-0.5,3.4v7.2c0,1.9,0.1,3,0.4,3.9c0.4,1.1,1.2,1.8,2.2,1.8c1.7,0,2.5-1.4,2.5-4.7v-1h-2.7
			v-3H274.9z"/>
	</g>
	<g>
		<path d="M66.8,34.8h1.1v10.7h-1.1V34.8z"/>
		<path d="M69.8,34.8h1.4l1.9,8.7l1.9-8.7h1.4v10.7h-1.1l0.1-9.1l-2,9.1h-0.8l-2-9.2l0.1,9.2h-1V34.8z"/>
		<path d="M78.3,34.8h1.8c0.9,0,1.4,0.1,1.9,0.5c0.6,0.6,0.9,1.5,0.9,2.6c0,2.1-0.9,3.2-2.6,3.2h-0.9v4.3h-1.1V34.8z M80.2,40.1
			c1.1,0,1.6-0.6,1.6-2.1c0-0.9-0.2-1.7-0.7-2c-0.2-0.2-0.5-0.2-1-0.2h-0.8v4.3H80.2z"/>
		<path d="M89.2,40.1c0,1.9-0.3,3.4-0.8,4.4c-0.4,0.8-1.1,1.2-2,1.2c-0.9,0-1.6-0.4-2.1-1.2c-0.5-1-0.8-2.4-0.8-4.2
			c0-3.8,1-5.7,2.9-5.7C88.2,34.6,89.2,36.5,89.2,40.1z M84.7,40c0,3.3,0.5,4.7,1.7,4.7c1.2,0,1.7-1.4,1.7-4.5
			c0-3.1-0.5-4.5-1.7-4.5C85.2,35.7,84.7,37,84.7,40z"/>
		<path d="M94.2,37.5c-0.2-1.2-0.7-1.8-1.5-1.8c-0.8,0-1.3,0.7-1.3,1.8c0,0.6,0.2,1,0.6,1.4c0.3,0.2,0.3,0.2,1.4,0.8
			c1.5,0.8,2,1.6,2,3c0,1.8-1.1,3-2.6,3c-1.5,0-2.5-1-2.8-2.9l1-0.3c0.2,1.4,0.8,2.1,1.8,2.1c0.9,0,1.5-0.7,1.5-1.9
			c0-1-0.3-1.5-1.3-2c-1.2-0.7-1.4-0.8-1.8-1.1c-0.5-0.5-0.8-1.2-0.8-2.1c0-1.7,1-2.9,2.4-2.9c1.3,0,2.1,0.8,2.5,2.6L94.2,37.5z"/>
		<path d="M100,37.5c-0.2-1.2-0.7-1.8-1.5-1.8c-0.8,0-1.3,0.7-1.3,1.8c0,0.6,0.2,1,0.6,1.4C98,39,98,39,99.2,39.6c1.5,0.8,2,1.6,2,3
			c0,1.8-1.1,3-2.6,3c-1.5,0-2.5-1-2.8-2.9l1-0.3c0.2,1.4,0.8,2.1,1.8,2.1c0.9,0,1.5-0.7,1.5-1.9c0-1-0.3-1.5-1.3-2
			c-1.2-0.7-1.4-0.8-1.8-1.1c-0.5-0.5-0.8-1.2-0.8-2.1c0-1.7,1-2.9,2.4-2.9c1.3,0,2.1,0.8,2.5,2.6L100,37.5z"/>
		<path d="M102.3,34.8h1.1v10.7h-1.1V34.8z"/>
		<path d="M105.3,34.8h2c0.9,0,1.5,0.2,1.9,0.6c0.5,0.5,0.7,1.2,0.7,2.1c0,0.8-0.2,1.4-0.5,1.8c-0.2,0.2-0.4,0.4-0.7,0.5
			c1,0.4,1.5,1.3,1.5,2.7c0,1.2-0.4,2.2-1,2.6c-0.4,0.3-0.8,0.3-1.7,0.3h-2.1V34.8z M107.2,39.4c1.1,0,1.5-0.5,1.5-1.8
			c0-1.3-0.5-1.8-1.6-1.8h-0.8v3.6H107.2z M107.4,44.5c0.6,0,1-0.1,1.2-0.4c0.3-0.3,0.4-0.9,0.4-1.7c0-0.8-0.2-1.3-0.5-1.7
			c-0.3-0.2-0.6-0.3-1.2-0.3h-1v4.1H107.4z"/>
		<path d="M111.3,34.8h1.1v9.7h3v1h-4.1V34.8z"/>
		<path d="M117.3,39.4h2.5v1h-2.5v4h3.4v1h-4.4V34.8h4.4v1h-3.3V39.4z"/>
		<path d="M128,37.5c-0.2-1.2-0.7-1.8-1.5-1.8c-0.8,0-1.3,0.7-1.3,1.8c0,0.6,0.2,1,0.6,1.4c0.3,0.2,0.3,0.2,1.4,0.8
			c1.5,0.8,2,1.6,2,3c0,1.8-1.1,3-2.6,3c-1.5,0-2.5-1-2.8-2.9l1-0.3c0.2,1.4,0.8,2.1,1.8,2.1c0.9,0,1.5-0.7,1.5-1.9
			c0-1-0.3-1.5-1.3-2c-1.2-0.7-1.4-0.8-1.8-1.1c-0.5-0.5-0.8-1.2-0.8-2.1c0-1.7,1-2.9,2.4-2.9c1.3,0,2.1,0.8,2.5,2.6L128,37.5z"/>
		<path d="M130.3,34.8h1.1v10.7h-1.1V34.8z"/>
		<path d="M134,35.9h-1.8v-1h4.8v1h-1.9v9.7H134V35.9z"/>
		<path d="M138.8,34.8v7.5c0,1.9,0.3,2.4,1.4,2.4c1,0,1.3-0.6,1.3-2.3v-7.5h1v7.5c0,1.3-0.1,2-0.5,2.5c-0.4,0.6-1,0.9-1.9,0.9
			c-0.9,0-1.6-0.3-1.9-0.9c-0.3-0.5-0.4-1.1-0.4-2.5v-7.5H138.8z"/>
		<path d="M146.5,34.8l2.1,10.7h-1.1l-0.6-3.1h-2.1l-0.6,3.1h-1l2.2-10.7H146.5z M145.9,36.1l-0.9,5.3h1.8L145.9,36.1z"/>
		<path d="M150.3,35.9h-1.8v-1h4.8v1h-1.9v9.7h-1.1V35.9z"/>
		<path d="M154.1,34.8h1.1v10.7h-1.1V34.8z"/>
		<path d="M162.4,40.1c0,1.9-0.3,3.4-0.8,4.4c-0.4,0.8-1.1,1.2-2,1.2c-0.9,0-1.6-0.4-2.1-1.2c-0.5-1-0.8-2.4-0.8-4.2
			c0-3.8,1-5.7,2.9-5.7C161.4,34.6,162.4,36.5,162.4,40.1z M157.9,40c0,3.3,0.5,4.7,1.7,4.7c1.2,0,1.7-1.4,1.7-4.5
			c0-3.1-0.5-4.5-1.7-4.5C158.4,35.7,157.9,37,157.9,40z"/>
		<path d="M163.9,34.8h1.3l3,8.4l-0.1-8.4h1v10.7H168l-3.3-9.2l0.1,9.2h-1V34.8z"/>
		<path d="M172.1,43.8v1.7h-1.2v-1.7H172.1z"/>
		<path d="M175,43.8v1.7h-1.2v-1.7H175z"/>
		<path d="M177.9,43.8v1.7h-1.2v-1.7H177.9z"/>
		<path d="M180.8,43.8v1.7h-1.2v-1.7H180.8z"/>
		<path d="M182.6,34.8h1.4l1.9,8.7l1.9-8.7h1.4v10.7h-1.1l0.1-9.1l-2,9.1h-0.8l-2-9.2l0.1,9.2h-1V34.8z"/>
		<path d="M193.4,34.8l2.1,10.7h-1.1l-0.6-3.1h-2.1l-0.6,3.1h-1l2.2-10.7H193.4z M192.8,36.1l-0.9,5.3h1.8L192.8,36.1z"/>
		<path d="M197.5,41l-2.2-6.2h1.1l1.7,5l1.6-5h1l-2.2,6.2v4.5h-1.1V41z"/>
		<path d="M201.5,34.8h2c0.9,0,1.5,0.2,1.9,0.6c0.5,0.5,0.7,1.2,0.7,2.1c0,0.8-0.2,1.4-0.5,1.8c-0.2,0.2-0.4,0.4-0.7,0.5
			c1,0.4,1.5,1.3,1.5,2.7c0,1.2-0.4,2.2-1,2.6c-0.4,0.3-0.8,0.3-1.7,0.3h-2.1V34.8z M203.5,39.4c1.1,0,1.5-0.5,1.5-1.8
			c0-1.3-0.5-1.8-1.6-1.8h-0.8v3.6H203.5z M203.6,44.5c0.6,0,1-0.1,1.2-0.4c0.3-0.3,0.4-0.9,0.4-1.7c0-0.8-0.2-1.3-0.5-1.7
			c-0.3-0.2-0.6-0.3-1.2-0.3h-1v4.1H203.6z"/>
		<path d="M208.7,39.4h2.5v1h-2.5v4h3.4v1h-4.4V34.8h4.4v1h-3.3V39.4z"/>
		<path d="M215,34.8h1.1l1.2,8.5l1.4-8.5h0.9l1.5,8.5l1.1-8.5h1l-1.6,10.7h-1.1l-1.4-8.2l-1.4,8.2h-1L215,34.8z"/>
		<path d="M225.2,39.4h2.5v1h-2.5v4h3.4v1h-4.4V34.8h4.4v1h-3.3V39.4z"/>
		<path d="M236.2,37.8c-0.2-1.6-0.6-2.2-1.4-2.2c-1.1,0-1.7,1.5-1.7,4.6c0,3,0.5,4.4,1.6,4.4c0.8,0,1.1-0.5,1.4-2.1l1,0.2
			c-0.4,2.1-1.1,2.9-2.4,2.9c-0.7,0-1.3-0.3-1.6-0.7c-0.7-0.9-1.1-2.4-1.1-4.7c0-2.2,0.4-3.9,1.1-4.9c0.4-0.5,0.9-0.8,1.6-0.8
			c1.4,0,2.1,0.9,2.4,3L236.2,37.8z"/>
		<path d="M240.6,34.8l2.1,10.7h-1.1l-0.6-3.1h-2.1l-0.6,3.1h-1l2.2-10.7H240.6z M240,36.1l-0.9,5.3h1.8L240,36.1z"/>
		<path d="M243.6,34.8h1.3l3,8.4l-0.1-8.4h1v10.7h-1.1l-3.3-9.2l0.1,9.2h-1V34.8z"/>
		<path d="M257.5,39.4v-4.5h1.1v10.7h-1.1v-5.1h-2.8v5.1h-1.1V34.8h1.1v4.5H257.5z"/>
		<path d="M261.5,39.4h2.5v1h-2.5v4h3.4v1h-4.4V34.8h4.4v1h-3.3V39.4z"/>
		<path d="M265.7,34.8h1.1v9.7h3v1h-4.1V34.8z"/>
		<path d="M270.6,34.8h1.8c0.9,0,1.4,0.1,1.9,0.5c0.6,0.6,0.9,1.5,0.9,2.6c0,2.1-0.9,3.2-2.6,3.2h-0.9v4.3h-1.1V34.8z M272.6,40.1
			c1.1,0,1.6-0.6,1.6-2.1c0-0.9-0.2-1.7-0.7-2c-0.2-0.2-0.5-0.2-1-0.2h-0.8v4.3H272.6z"/>
	</g>
</g>
<g id="StrapLine">
</g>
</svg>
