<?xml version="1.0" encoding="utf-8"?>
<!-- Generator: Adobe Illustrator 19.1.1, SVG Export Plug-In . SVG Version: 6.00 Build 0)  -->
<svg version="1.1" xmlns="http://www.w3.org/2000/svg" xmlns:xlink="http://www.w3.org/1999/xlink" x="0px" y="0px"
	 viewBox="0 0 808 139" style="enable-background:new 0 0 808 139;" xml:space="preserve">
<style type="text/css">
	.st0{display:none;}
	.st1{fill:#006837;stroke:#FCFCFC;stroke-miterlimit:10;}
	.st2{fill:#8CC63F;stroke:#FCFCFC;stroke-miterlimit:10;}
	.st3{fill:#8CC63F;stroke:#FFFFFF;stroke-miterlimit:10;}
	.st4{fill:#8CC63F;}
</style>
<g id="Layer_1" class="st0">
</g>
<g id="MaybeSquare">
</g>
<g id="MaybeText">
</g>
<g id="CONSULTINGText">
	<rect x="0.9" y="2.1" class="st1" width="34.5" height="33.5"/>
	<rect x="36.4" y="2.1" class="st2" width="34.5" height="33.5"/>
	<rect x="71.4" y="2.1" class="st2" width="34.5" height="33.5"/>
	<rect x="0.9" y="36.6" class="st1" width="34.5" height="33.5"/>
	<rect x="36.4" y="36.6" class="st1" width="34.5" height="33.5"/>
	<rect x="71.4" y="36.6" class="st2" width="34.5" height="33.5"/>
	<rect x="106.4" y="2.1" class="st2" width="34.5" height="33.5"/>
	<rect x="106.4" y="36.6" class="st1" width="34.5" height="33.5"/>
	<rect x="141.9" y="2.1" class="st1" width="34.5" height="33.5"/>
	<rect x="141.9" y="36.6" class="st1" width="34.5" height="33.5"/>
	<rect x="0.9" y="70.9" class="st1" width="34.5" height="33.5"/>
	<rect x="36.4" y="70.9" class="st2" width="34.5" height="33.5"/>
	<rect x="71.4" y="70.9" class="st1" width="34.5" height="33.5"/>
	<rect x="0.9" y="105.4" class="st1" width="34.5" height="33.5"/>
	<rect x="36.4" y="105.4" class="st3" width="34.5" height="33.5"/>
	<rect x="71.4" y="105.4" class="st2" width="34.5" height="33.5"/>
	<rect x="106.4" y="70.9" class="st2" width="34.5" height="33.5"/>
	<rect x="106.4" y="105.4" class="st2" width="34.5" height="33.5"/>
	<rect x="141.9" y="70.9" class="st1" width="34.5" height="33.5"/>
	<rect x="141.9" y="105.4" class="st1" width="34.5" height="33.5"/>
	<g>
		<path d="M244.6,76.1H235V24l-11.4,52.1h-5.7L206.6,24v52.1H197V5.3h14.8l9,44.5L230,5.3h14.6V76.1z"/>
		<path d="M265.1,60.7l-2.6,15.4h-9.9l12.5-70.8h13.8l13.2,70.8h-10.4L279,60.7H265.1z M272,18.9l-5.3,31.7h10.7L272,18.9z"/>
		<path d="M316.5,76.1h-10.1V48.5L291.7,5.3h11.2l8.7,29.9l9-29.9h11l-15.1,43.2V76.1z"/>
		<path d="M338.1,5.3h15.1c12.2,0,19.1,6.5,19.1,17.9c0,8.4-3.4,13.4-10.8,15.8c8.8,2.8,12.3,7.6,12.3,17c0,12.5-7.3,20.1-19.4,20.1
			h-16.4V5.3z M351.8,34.2c6.2,0,10.2-3.9,10.2-10c0-2.7-0.9-5-2.4-6.6c-1.7-1.6-3.7-2.2-7.5-2.2h-3.8v18.8H351.8z M353.3,66
			c6.5,0,10.1-3.6,10.1-10c0-7.1-4.5-11.8-11.6-11.8h-3.6V66H353.3z"/>
		<path d="M412.4,15.4h-19.5v18.7h14.4v10.1h-14.4V66h19.5v10.1h-29.6V5.3h29.6V15.4z"/>
	</g>
	<g>
		<path class="st4" d="M451.6,28v-1.5c0-8-2.5-12.1-7.4-12.1c-2.6,0-4.7,1.2-5.8,3.4c-1.2,2.3-1.5,4.4-1.5,10V51c0,5.3,0.3,8,1,10.3
			c0.9,2.7,3.4,4.5,6.2,4.5c3.6,0,5.9-2.3,7-6.9c0.4-1.8,0.5-3.3,0.6-8.4h9.8v2.4c0,15.1-5.9,23-17.3,23c-6.3,0-11.3-2.7-14.1-7.7
			c-2.4-4.3-3-8.3-3-18.6V30.1c0-11,0.8-14.9,3.7-19.2c2.7-4.2,7.5-6.4,13.3-6.4c10.8,0,17.1,7.9,17.1,21.5V28H451.6z"/>
		<path class="st4" d="M503.8,52.8c0,7.8-1,12.5-3.6,16.4c-2.8,4.4-7.5,6.7-13.6,6.7c-6,0-10.8-2.3-13.6-6.7
			c-2.5-4-3.6-8.6-3.6-16.4V27.5c0-7.8,1-12.5,3.6-16.4c2.8-4.4,7.5-6.7,13.6-6.7c6,0,10.8,2.3,13.6,6.7c2.5,4,3.6,8.6,3.6,16.4
			V52.8z M479.2,52.5c0,5.5,0.3,7.4,1.2,9.5c1.1,2.3,3.5,3.7,6.2,3.7s5.1-1.5,6.2-3.7c1-2.2,1.2-3.8,1.2-9.5V27.7
			c0-5.6-0.2-7.3-1.2-9.5c-1.1-2.3-3.5-3.7-6.2-3.7s-5.1,1.5-6.2,3.7c-0.9,2.1-1.2,4-1.2,9.5V52.5z"/>
		<path class="st4" d="M547.7,74.8H539l-17-46.2v46.2h-9.2V5.4h9.8l15.8,43.2V5.4h9.2V74.8z"/>
		<path class="st4" d="M580.9,24.8c-1.5-6.9-4.3-10.3-8.3-10.3c-3.6,0-6.3,3-6.3,7.1c0,2.4,0.9,5,2.6,7c1.6,2,1.6,2,8.3,7.6
			c5.3,4.6,7.3,6.6,9.3,9.4c2.5,3.4,4.1,8,4.1,12.7c0,10.5-7,17.7-17.3,17.7c-10.8,0-17.1-6.3-19.1-19.6l9.3-3
			c1.2,8.3,4.5,12.5,9.7,12.5c4.2,0,7.2-3.2,7.2-7.9c0-4.4-2-7.2-9.3-13.5c-8.8-7.6-9.2-8-11.5-11.3c-2.3-3.2-3.5-7.3-3.5-11.5
			c0-10,6.8-17.1,16.4-17.1c9,0,15,5.9,17.6,17.4L580.9,24.8z"/>
		<path class="st4" d="M630.7,5.4v47c0,8.7-0.9,13.2-3.6,17.2c-2.7,4.1-7.4,6.2-13,6.2c-5.8,0-10.4-2.2-13.1-6.2
			c-2.6-4-3.6-8.4-3.6-17.2v-47h9.7v48.8c0,8.2,2,11.5,7,11.5c4.9,0,6.9-3.3,6.9-11.5V5.4H630.7z"/>
		<path class="st4" d="M649.9,64.9h19.3v9.9h-29.1V5.4h9.7V64.9z"/>
		<path class="st4" d="M690.1,74.8h-9.7V15.3h-12.2V5.4h34.2v9.9h-12.3V74.8z"/>
		<path class="st4" d="M718.9,74.8h-9.7V5.4h9.7V74.8z"/>
		<path class="st4" d="M763.4,74.8h-8.7l-17-46.2v46.2h-9.2V5.4h9.8l15.8,43.2V5.4h9.2V74.8z"/>
		<path class="st4" d="M806.6,40.4v34.4h-5l-1.8-5.9c-3.2,5-6.7,7-11.8,7c-5.8,0-10.6-3-13-8.1c-2.1-4.5-2.7-8.9-2.7-18.5V30.1
			c0-11,0.8-15,3.7-19.2c2.7-4.2,7.5-6.4,13.3-6.4c6.9,0,12,3.2,14.8,9.3c1.6,3.4,2.3,7.7,2.3,14.4h-9.7c0-9.6-2.2-13.5-7.5-13.5
			c-2.5,0-4.7,1.2-5.8,3.5c-1.1,2.3-1.4,4.4-1.4,10v21.2c0,5.7,0.3,8.7,1,11.3c1,3.2,3.5,5.2,6.6,5.2c5.1,0,7.3-4.1,7.3-13.7v-2.8
			h-8v-8.8H806.6z"/>
	</g>
	<g>
		<path d="M195.7,102.9h3.2v31.4h-3.2V102.9z"/>
		<path d="M204.2,102.9h4.2l5.6,25.5l5.7-25.5h4.2v31.4h-3.1l0.3-26.7l-5.9,26.7h-2.4l-5.9-26.9l0.3,26.9h-2.9V102.9z"/>
		<path d="M229.2,102.9h5.4c2.7,0,4.2,0.4,5.5,1.6c1.8,1.6,2.7,4.3,2.7,7.8c0,6-2.7,9.3-7.7,9.3h-2.7v12.8h-3.2V102.9z M235,118.5
			c3.2,0,4.6-1.8,4.6-6.1c0-2.8-0.7-4.8-2-5.7c-0.6-0.5-1.6-0.7-2.8-0.7h-2.4v12.5H235z"/>
		<path d="M261.3,118.4c0,5.6-0.8,9.8-2.5,12.9c-1.3,2.4-3.2,3.6-5.8,3.6c-2.7,0-4.8-1.3-6-3.5c-1.5-2.8-2.3-7-2.3-12.4
			c0-11.1,2.8-16.6,8.4-16.6C258.5,102.3,261.3,107.8,261.3,118.4z M248,118c0,9.6,1.6,13.8,5,13.8c3.4,0,4.9-4.1,4.9-13.2
			c0-9.1-1.6-13.2-4.9-13.2C249.6,105.4,248,109.4,248,118z"/>
		<path d="M275.9,110.7c-0.7-3.6-2.1-5.3-4.5-5.3c-2.3,0-3.9,2.1-3.9,5.2c0,1.7,0.6,3.1,1.7,4c0.8,0.7,0.8,0.7,4.2,2.5
			c4.4,2.5,5.8,4.6,5.8,8.9c0,5.3-3.1,8.9-7.6,8.9c-4.4,0-7.3-2.9-8.1-8.5l2.9-0.8c0.6,4.1,2.4,6.3,5.2,6.3c2.7,0,4.3-2.1,4.3-5.6
			c0-3-0.9-4.3-3.9-6c-3.6-2-4-2.2-5.2-3.2c-1.6-1.4-2.4-3.5-2.4-6.3c0-5,2.9-8.4,7-8.4c3.9,0,6.2,2.4,7.3,7.6L275.9,110.7z"/>
		<path d="M293.1,110.7c-0.7-3.6-2.1-5.3-4.5-5.3c-2.3,0-3.9,2.1-3.9,5.2c0,1.7,0.6,3.1,1.7,4c0.8,0.7,0.8,0.7,4.2,2.5
			c4.4,2.5,5.8,4.6,5.8,8.9c0,5.3-3.1,8.9-7.6,8.9c-4.4,0-7.3-2.9-8.1-8.5l2.9-0.8c0.6,4.1,2.4,6.3,5.2,6.3c2.7,0,4.3-2.1,4.3-5.6
			c0-3-0.9-4.3-3.9-6c-3.6-2-4-2.2-5.2-3.2c-1.6-1.4-2.4-3.5-2.4-6.3c0-5,2.9-8.4,7-8.4c3.9,0,6.2,2.4,7.3,7.6L293.1,110.7z"/>
		<path d="M299.9,102.9h3.2v31.4h-3.2V102.9z"/>
		<path d="M308.5,102.9h5.8c2.7,0,4.3,0.5,5.4,1.6c1.4,1.4,2.1,3.6,2.1,6.2c0,2.2-0.5,4.2-1.4,5.4c-0.5,0.7-1,1-2.1,1.4
			c3,1.2,4.4,3.7,4.4,8c0,3.6-1.2,6.5-3.1,7.7c-1.1,0.8-2.4,1-5.1,1h-6.2V102.9z M314.3,116.4c3.3,0,4.5-1.4,4.5-5.2
			c0-3.7-1.3-5.3-4.7-5.3h-2.4v10.5H314.3z M314.7,131.2c1.8,0,2.9-0.3,3.6-1.1c0.8-0.9,1.3-2.7,1.3-4.9c0-2.3-0.5-3.9-1.6-4.9
			c-0.8-0.7-1.8-1-3.5-1h-2.9v11.9H314.7z"/>
		<path d="M326.3,102.9h3.2v28.3h8.7v3.1h-11.9V102.9z"/>
		<path d="M343.8,116.5h7.4v3.1h-7.4v11.7h9.9v3.1h-13v-31.4h12.8v3.1h-9.6V116.5z"/>
		<path d="M375.2,110.7c-0.7-3.6-2.1-5.3-4.5-5.3c-2.3,0-3.9,2.1-3.9,5.2c0,1.7,0.6,3.1,1.7,4c0.8,0.7,0.8,0.7,4.1,2.5
			c4.4,2.5,5.8,4.6,5.8,8.9c0,5.3-3.1,8.9-7.6,8.9c-4.4,0-7.3-2.9-8.1-8.5l2.9-0.8c0.6,4.1,2.4,6.3,5.2,6.3c2.7,0,4.3-2.1,4.3-5.6
			c0-3-0.9-4.3-3.9-6c-3.6-2-4-2.2-5.2-3.2c-1.6-1.4-2.4-3.5-2.4-6.3c0-5,2.9-8.4,7-8.4c3.9,0,6.2,2.4,7.3,7.6L375.2,110.7z"/>
		<path d="M382.1,102.9h3.2v31.4h-3.2V102.9z"/>
		<path d="M393,106h-5.4v-3.1h14v3.1h-5.5v28.3H393V106z"/>
		<path d="M406.9,102.9v21.9c0,5.5,0.8,7,4,7c2.9,0,3.9-1.8,3.9-6.8v-22.1h3.1v21.9c0,3.8-0.4,5.7-1.6,7.4c-1.2,1.7-3.1,2.6-5.7,2.6
			c-2.6,0-4.6-0.9-5.7-2.5c-1-1.6-1.3-3.3-1.3-7.5v-21.9H406.9z"/>
		<path d="M429.6,102.9l6.3,31.4h-3.3l-1.8-9.1h-6.3l-1.7,9.1h-3l6.4-31.4H429.6z M427.8,106.7l-2.6,15.6h5.2L427.8,106.7z"/>
		<path d="M440.9,106h-5.4v-3.1h14v3.1h-5.5v28.3h-3.2V106z"/>
		<path d="M452.1,102.9h3.2v31.4h-3.2V102.9z"/>
		<path d="M476.2,118.4c0,5.6-0.8,9.8-2.5,12.9c-1.3,2.4-3.2,3.6-5.8,3.6c-2.7,0-4.8-1.3-6-3.5c-1.5-2.8-2.3-7-2.3-12.4
			c0-11.1,2.8-16.6,8.4-16.6C473.4,102.3,476.2,107.8,476.2,118.4z M463,118c0,9.6,1.6,13.8,5,13.8c3.4,0,4.9-4.1,4.9-13.2
			c0-9.1-1.6-13.2-4.9-13.2C464.5,105.4,463,109.4,463,118z"/>
		<path d="M480.6,102.9h3.8l8.8,24.6l-0.2-24.6h2.9v31.4h-3.1l-9.6-26.9l0.2,26.9h-2.9V102.9z"/>
		<path d="M504.7,129.2v5.1h-3.6v-5.1H504.7z"/>
		<path d="M513.3,129.2v5.1h-3.6v-5.1H513.3z"/>
		<path d="M521.8,129.2v5.1h-3.6v-5.1H521.8z"/>
		<path d="M530.4,129.2v5.1h-3.6v-5.1H530.4z"/>
		<path d="M535.5,102.9h4.2l5.6,25.5l5.7-25.5h4.1v31.4H552l0.3-26.7l-5.9,26.7H544l-5.9-26.9l0.3,26.9h-2.9V102.9z"/>
		<path d="M567.4,102.9l6.3,31.4h-3.3l-1.8-9.1h-6.3l-1.7,9.1h-3l6.4-31.4H567.4z M565.6,106.7l-2.6,15.6h5.2L565.6,106.7z"/>
		<path d="M579.4,121l-6.4-18.1h3.3l4.9,14.5l4.8-14.5h3l-6.4,18.1v13.3h-3.2V121z"/>
		<path d="M591.2,102.9h5.8c2.7,0,4.3,0.5,5.4,1.6c1.4,1.4,2.1,3.6,2.1,6.2c0,2.2-0.5,4.2-1.4,5.4c-0.5,0.7-1,1-2.1,1.4
			c3,1.2,4.4,3.7,4.4,8c0,3.6-1.2,6.5-3.1,7.7c-1.1,0.8-2.4,1-5.1,1h-6.2V102.9z M597,116.4c3.3,0,4.5-1.4,4.5-5.2
			c0-3.7-1.3-5.3-4.7-5.3h-2.4v10.5H597z M597.4,131.2c1.8,0,2.9-0.3,3.6-1.1c0.8-0.9,1.3-2.7,1.3-4.9c0-2.3-0.5-3.9-1.6-4.9
			c-0.8-0.7-1.8-1-3.5-1h-2.8v11.9H597.4z"/>
		<path d="M612.3,116.5h7.4v3.1h-7.4v11.7h9.9v3.1h-13v-31.4h12.8v3.1h-9.6V116.5z"/>
		<path d="M630.9,102.9h3.1l3.6,24.9l4-24.9h2.6l4.4,24.9l3.3-24.9h2.9l-4.7,31.4h-3.1l-4.1-24.2l-4,24.2h-3L630.9,102.9z"/>
		<path d="M660.8,116.5h7.4v3.1h-7.4v11.7h9.9v3.1h-13v-31.4h12.8v3.1h-9.6V116.5z"/>
		<path d="M693.1,111.8c-0.7-4.7-1.7-6.4-4-6.4c-3.3,0-4.9,4.5-4.9,13.6c0,8.7,1.6,12.9,4.8,12.9c2.3,0,3.3-1.5,4.1-6.1l2.9,0.6
			c-1.1,6.1-3.1,8.6-7.1,8.6c-1.9,0-3.7-0.8-4.8-2c-2.2-2.6-3.3-7.2-3.3-13.7c0-6.5,1.1-11.5,3.3-14.5c1.1-1.6,2.8-2.4,4.8-2.4
			c4,0,6.2,2.6,7,8.7L693.1,111.8z"/>
		<path d="M705.9,102.9l6.3,31.4h-3.3l-1.8-9.1h-6.3l-1.7,9.1h-3l6.4-31.4H705.9z M704.1,106.7l-2.6,15.6h5.2L704.1,106.7z"/>
		<path d="M714.7,102.9h3.8l8.8,24.6l-0.2-24.6h2.8v31.4H727l-9.6-26.9l0.2,26.9h-2.9V102.9z"/>
		<path d="M755.4,116.2v-13.3h3.2v31.4h-3.2v-15h-8.3v15H744v-31.4h3.2v13.3H755.4z"/>
		<path d="M767.2,116.5h7.4v3.1h-7.4v11.7h9.9v3.1h-13v-31.4h12.8v3.1h-9.6V116.5z"/>
		<path d="M779.7,102.9h3.2v28.3h8.7v3.1h-11.9V102.9z"/>
		<path d="M794,102.9h5.4c2.7,0,4.2,0.4,5.5,1.6c1.8,1.6,2.7,4.3,2.7,7.8c0,6-2.7,9.3-7.7,9.3h-2.7v12.8H794V102.9z M799.8,118.5
			c3.2,0,4.6-1.8,4.6-6.1c0-2.8-0.7-4.8-2-5.7c-0.6-0.5-1.6-0.7-2.8-0.7h-2.4v12.5H799.8z"/>
	</g>
</g>
<g id="StrapLine">
</g>
</svg>
